<svg xmlns="http://www.w3.org/2000/svg" xmlns:xlink="http://www.w3.org/1999/xlink" width="1440" zoomAndPan="magnify" viewBox="0 0 1080 299.999988" height="400" preserveAspectRatio="xMidYMid meet" version="1.0"><defs><clipPath id="f564fa85e7"><path d="M 141.878906 0 L 938.378906 0 L 938.378906 300 L 141.878906 300 Z M 141.878906 0 " clip-rule="nonzero"/></clipPath></defs><rect x="-108" width="1296" fill="#ffffff" y="-29.999999" height="359.999986" fill-opacity="1"/><rect x="-108" width="1296" fill="#fab9b9" y="-29.999999" height="359.999986" fill-opacity="1"/><g clip-path="url(#f564fa85e7)"><path fill="#fab9b9" d="M 141.878906 -248.035156 L 938.378906 -248.035156 L 938.378906 548.464844 L 141.878906 548.464844 Z M 141.878906 -248.035156 " fill-opacity="1" fill-rule="nonzero"/></g><path fill="#b8233e" d="M 611.253906 133.761719 C 611.253906 134.320312 611.199219 134.875 611.089844 135.425781 C 610.980469 135.972656 610.816406 136.507812 610.605469 137.023438 C 610.390625 137.539062 610.128906 138.03125 609.816406 138.496094 C 609.503906 138.960938 609.152344 139.394531 608.757812 139.789062 C 608.359375 140.183594 607.929688 140.539062 607.464844 140.847656 C 607 141.160156 606.507812 141.421875 605.992188 141.636719 C 605.472656 141.851562 604.941406 142.011719 604.390625 142.121094 C 603.84375 142.230469 603.289062 142.285156 602.730469 142.285156 C 602.171875 142.285156 601.617188 142.230469 601.066406 142.121094 C 600.519531 142.011719 599.984375 141.851562 599.46875 141.636719 C 598.949219 141.421875 598.460938 141.160156 597.996094 140.847656 C 597.527344 140.539062 597.097656 140.183594 596.703125 139.789062 C 596.308594 139.394531 595.953125 138.960938 595.644531 138.496094 C 595.332031 138.03125 595.070312 137.539062 594.855469 137.023438 C 594.640625 136.507812 594.480469 135.972656 594.371094 135.425781 C 594.261719 134.875 594.207031 134.320312 594.207031 133.761719 C 594.207031 133.203125 594.261719 132.648438 594.371094 132.097656 C 594.480469 131.550781 594.640625 131.015625 594.855469 130.5 C 595.070312 129.984375 595.332031 129.492188 595.644531 129.027344 C 595.953125 128.5625 596.308594 128.128906 596.703125 127.734375 C 597.097656 127.339844 597.527344 126.984375 597.996094 126.675781 C 598.460938 126.363281 598.949219 126.101562 599.46875 125.886719 C 599.984375 125.671875 600.519531 125.511719 601.066406 125.402344 C 601.617188 125.292969 602.171875 125.238281 602.730469 125.238281 C 603.289062 125.238281 603.84375 125.292969 604.390625 125.402344 C 604.941406 125.511719 605.472656 125.671875 605.992188 125.886719 C 606.507812 126.101562 607 126.363281 607.464844 126.675781 C 607.929688 126.984375 608.359375 127.339844 608.757812 127.734375 C 609.152344 128.128906 609.503906 128.5625 609.816406 129.027344 C 610.128906 129.492188 610.390625 129.984375 610.605469 130.5 C 610.816406 131.015625 610.980469 131.550781 611.089844 132.097656 C 611.199219 132.648438 611.253906 133.203125 611.253906 133.761719 Z M 611.253906 133.761719 " fill-opacity="1" fill-rule="nonzero"/><path fill="#b8233e" d="M 607.375 125.808594 C 609.125 121.71875 611.046875 117.652344 613.699219 114.054688 C 616.207031 110.664062 619.402344 107.890625 622.847656 105.496094 C 623.730469 104.886719 622.894531 103.433594 622.003906 104.042969 C 618.445312 106.507812 615.1875 109.324219 612.5625 112.789062 C 609.753906 116.492188 607.75 120.707031 605.933594 124.957031 C 605.511719 125.941406 606.953125 126.792969 607.382812 125.800781 Z M 607.375 125.808594 " fill-opacity="1" fill-rule="nonzero"/><path fill="#000000" d="M 413.671875 199.804688 C 405.449219 199.804688 398.929688 197.507812 394.125 192.929688 C 389.320312 188.347656 386.910156 181.78125 386.910156 173.242188 L 386.910156 157.300781 C 386.910156 148.765625 389.308594 142.199219 394.125 137.613281 C 398.929688 133.03125 405.449219 130.738281 413.671875 130.738281 C 421.894531 130.738281 428.132812 132.964844 432.589844 137.425781 C 437.050781 141.882812 439.277344 148 439.277344 155.78125 L 439.277344 156.351562 L 426.941406 156.351562 L 426.941406 155.40625 C 426.941406 151.484375 425.847656 148.261719 423.675781 145.730469 C 421.492188 143.203125 418.15625 141.9375 413.671875 141.9375 C 409.183594 141.9375 405.765625 143.296875 403.238281 146.011719 C 400.707031 148.730469 399.445312 152.429688 399.445312 157.113281 L 399.445312 173.429688 C 399.445312 178.046875 400.707031 181.726562 403.238281 184.480469 C 405.765625 187.234375 409.242188 188.609375 413.671875 188.609375 C 418.101562 188.609375 421.492188 187.328125 423.675781 184.769531 C 425.855469 182.214844 426.941406 179 426.941406 175.140625 L 426.941406 173.4375 L 439.277344 173.4375 L 439.277344 174.765625 C 439.277344 182.542969 437.050781 188.667969 432.589844 193.125 C 428.132812 197.582031 421.828125 199.8125 413.671875 199.8125 Z M 413.671875 199.804688 " fill-opacity="1" fill-rule="nonzero"/><path fill="#000000" d="M 463.789062 199.804688 C 460.4375 199.804688 457.429688 199.214844 454.78125 198.050781 C 452.121094 196.882812 450.023438 195.175781 448.46875 192.929688 C 446.910156 190.679688 446.144531 187.945312 446.144531 184.722656 C 446.144531 181.5 446.921875 178.796875 448.46875 176.613281 C 450.011719 174.429688 452.167969 172.792969 454.921875 171.675781 C 457.675781 170.570312 460.820312 170.019531 464.363281 170.019531 L 477.269531 170.019531 L 477.269531 167.359375 C 477.269531 165.148438 476.566406 163.332031 475.179688 161.90625 C 473.785156 160.484375 471.574219 159.773438 468.539062 159.773438 C 465.503906 159.773438 463.351562 160.457031 461.898438 161.8125 C 460.4375 163.171875 459.492188 164.933594 459.050781 167.078125 L 448.046875 163.378906 C 448.804688 160.972656 450.023438 158.777344 451.699219 156.785156 C 453.375 154.789062 455.621094 153.179688 458.433594 151.949219 C 461.242188 150.714844 464.679688 150.105469 468.726562 150.105469 C 474.925781 150.105469 479.824219 151.652344 483.429688 154.75 C 487.039062 157.851562 488.835938 162.339844 488.835938 168.21875 L 488.835938 185.773438 C 488.835938 187.675781 489.714844 188.621094 491.496094 188.621094 L 495.289062 188.621094 L 495.289062 198.484375 L 487.316406 198.484375 C 484.976562 198.484375 483.046875 197.910156 481.53125 196.777344 C 480.011719 195.644531 479.253906 194.117188 479.253906 192.226562 L 479.253906 192.132812 L 477.457031 192.132812 C 477.203125 192.890625 476.632812 193.882812 475.75 195.121094 C 474.859375 196.355469 473.476562 197.441406 471.574219 198.390625 C 469.679688 199.335938 467.085938 199.8125 463.800781 199.8125 Z M 465.878906 190.128906 C 469.230469 190.128906 471.96875 189.199219 474.082031 187.328125 C 476.199219 185.464844 477.257812 182.980469 477.257812 179.882812 L 477.257812 178.933594 L 465.203125 178.933594 C 462.992188 178.933594 461.25 179.414062 459.988281 180.359375 C 458.722656 181.304688 458.085938 182.636719 458.085938 184.339844 C 458.085938 186.042969 458.75 187.441406 460.082031 188.515625 C 461.410156 189.59375 463.332031 190.128906 465.871094 190.128906 Z M 465.878906 190.128906 " fill-opacity="1" fill-rule="nonzero"/><path fill="#000000" d="M 503.457031 198.472656 L 503.457031 132.066406 L 515.40625 132.066406 L 515.40625 168.78125 L 517.113281 168.78125 L 532.667969 151.417969 L 548.226562 151.417969 L 526.507812 174.1875 L 548.984375 198.472656 L 533.617188 198.472656 L 517.113281 179.789062 L 515.40625 179.789062 L 515.40625 198.472656 Z M 503.457031 198.472656 " fill-opacity="1" fill-rule="nonzero"/><path fill="#000000" d="M 672.875 199.804688 C 666.738281 199.804688 661.710938 198.472656 657.792969 195.824219 C 653.871094 193.164062 651.5 189.371094 650.675781 184.441406 L 661.679688 181.59375 C 662.121094 183.804688 662.871094 185.546875 663.910156 186.8125 C 664.949219 188.078125 666.25 188.976562 667.796875 189.519531 C 669.34375 190.054688 671.039062 190.324219 672.875 190.324219 C 675.65625 190.324219 677.714844 189.835938 679.035156 188.855469 C 680.367188 187.871094 681.03125 186.652344 681.03125 185.203125 C 681.03125 183.75 680.40625 182.625 679.128906 181.828125 C 677.867188 181.042969 675.84375 180.386719 673.0625 179.882812 L 670.402344 179.402344 C 667.113281 178.777344 664.105469 177.90625 661.390625 176.800781 C 658.675781 175.695312 656.484375 174.160156 654.84375 172.199219 C 653.195312 170.242188 652.378906 167.714844 652.378906 164.613281 C 652.378906 159.929688 654.085938 156.34375 657.503906 153.84375 C 660.921875 151.34375 665.410156 150.097656 670.972656 150.097656 C 676.21875 150.097656 680.582031 151.265625 684.066406 153.609375 C 687.542969 155.949219 689.816406 159.011719 690.894531 162.808594 L 679.796875 166.226562 C 679.289062 163.816406 678.257812 162.113281 676.714844 161.101562 C 675.160156 160.089844 673.25 159.585938 670.972656 159.585938 C 668.695312 159.585938 666.953125 159.976562 665.753906 160.773438 C 664.554688 161.570312 663.957031 162.65625 663.957031 164.042969 C 663.957031 165.558594 664.585938 166.683594 665.859375 167.414062 C 667.121094 168.144531 668.828125 168.699219 670.980469 169.074219 L 673.640625 169.550781 C 677.183594 170.1875 680.394531 171.019531 683.269531 172.0625 C 686.144531 173.101562 688.421875 174.589844 690.097656 176.519531 C 691.773438 178.449219 692.617188 181.0625 692.617188 184.347656 C 692.617188 189.285156 690.828125 193.097656 687.261719 195.777344 C 683.683594 198.464844 678.894531 199.804688 672.882812 199.804688 Z M 672.875 199.804688 " fill-opacity="1" fill-rule="nonzero"/><path fill="#000000" d="M 391.941406 117.839844 L 391.941406 66.660156 L 401.597656 66.660156 L 401.597656 86.988281 L 402.917969 86.988281 L 419.515625 66.660156 L 431.871094 66.660156 L 410.523438 91.886719 L 432.609375 117.839844 L 419.890625 117.839844 L 402.929688 97.074219 L 401.605469 97.074219 L 401.605469 117.839844 Z M 391.941406 117.839844 " fill-opacity="1" fill-rule="nonzero"/><path fill="#000000" d="M 439.605469 132.460938 L 439.605469 124.414062 L 459.351562 124.414062 C 460.71875 124.414062 461.402344 123.683594 461.402344 122.222656 L 461.402344 113.082031 L 460.082031 113.082031 C 459.6875 113.914062 459.078125 114.738281 458.253906 115.574219 C 457.429688 116.40625 456.304688 117.082031 454.890625 117.613281 C 453.476562 118.148438 451.671875 118.417969 449.476562 118.417969 C 446.648438 118.417969 444.175781 117.773438 442.058594 116.480469 C 439.945312 115.1875 438.296875 113.398438 437.125 111.105469 C 435.953125 108.808594 435.371094 106.179688 435.371094 103.210938 L 435.371094 81.5625 L 444.589844 81.5625 L 444.589844 102.476562 C 444.589844 105.214844 445.253906 107.253906 446.601562 108.621094 C 447.941406 109.988281 449.851562 110.675781 452.34375 110.675781 C 455.171875 110.675781 457.363281 109.738281 458.929688 107.855469 C 460.492188 105.980469 461.269531 103.359375 461.269531 99.996094 L 461.269531 81.574219 L 470.488281 81.574219 L 470.488281 124.273438 C 470.488281 126.753906 469.757812 128.742188 468.296875 130.230469 C 466.835938 131.71875 464.886719 132.460938 462.449219 132.460938 Z M 439.605469 132.460938 " fill-opacity="1" fill-rule="nonzero"/><path fill="#000000" d="M 484.527344 77.328125 C 482.871094 77.328125 481.464844 76.796875 480.320312 75.71875 C 479.179688 74.652344 478.609375 73.238281 478.609375 71.476562 C 478.609375 69.714844 479.179688 68.308594 480.320312 67.234375 C 481.464844 66.164062 482.871094 65.621094 484.527344 65.621094 C 486.183594 65.621094 487.644531 66.15625 488.769531 67.234375 C 489.894531 68.308594 490.457031 69.714844 490.457031 71.476562 C 490.457031 73.238281 489.894531 74.640625 488.769531 75.71875 C 487.644531 76.785156 486.230469 77.328125 484.527344 77.328125 Z M 479.917969 117.839844 L 479.917969 81.574219 L 489.136719 81.574219 L 489.136719 117.839844 Z M 479.917969 117.839844 " fill-opacity="1" fill-rule="nonzero"/><path fill="#000000" d="M 506.332031 117.839844 L 494.78125 81.574219 L 504.582031 81.574219 L 512.992188 111.113281 L 514.3125 111.113281 L 522.722656 81.574219 L 532.519531 81.574219 L 520.972656 117.839844 Z M 506.332031 117.839844 " fill-opacity="1" fill-rule="nonzero"/><path fill="#000000" d="M 397.207031 235.199219 C 396.023438 235.199219 394.996094 234.992188 394.09375 234.570312 C 393.195312 234.148438 392.492188 233.550781 391.988281 232.761719 C 391.480469 231.976562 391.230469 231.039062 391.230469 229.933594 L 391.230469 229.324219 L 394.058594 229.324219 L 394.058594 229.933594 C 394.058594 230.84375 394.339844 231.535156 394.910156 231.984375 C 395.480469 232.4375 396.242188 232.667969 397.214844 232.667969 C 398.1875 232.667969 398.9375 232.472656 399.425781 232.078125 C 399.910156 231.6875 400.15625 231.191406 400.15625 230.582031 C 400.15625 230.160156 400.035156 229.824219 399.800781 229.558594 C 399.554688 229.296875 399.210938 229.082031 398.761719 228.921875 C 398.300781 228.753906 397.75 228.605469 397.09375 228.453125 L 396.597656 228.34375 C 395.554688 228.109375 394.65625 227.816406 393.90625 227.460938 C 393.160156 227.105469 392.585938 226.636719 392.195312 226.058594 C 391.800781 225.476562 391.59375 224.726562 391.59375 223.800781 C 391.59375 222.871094 391.820312 222.078125 392.257812 221.421875 C 392.699219 220.765625 393.328125 220.257812 394.132812 219.902344 C 394.9375 219.546875 395.882812 219.371094 396.972656 219.371094 C 398.058594 219.371094 399.023438 219.558594 399.875 219.921875 C 400.726562 220.289062 401.390625 220.839844 401.878906 221.570312 C 402.367188 222.300781 402.609375 223.21875 402.609375 224.324219 L 402.609375 224.980469 L 399.78125 224.980469 L 399.78125 224.324219 C 399.78125 223.742188 399.667969 223.277344 399.445312 222.917969 C 399.21875 222.5625 398.890625 222.300781 398.480469 222.132812 C 398.058594 221.964844 397.5625 221.878906 396.980469 221.878906 C 396.109375 221.878906 395.464844 222.039062 395.050781 222.367188 C 394.640625 222.695312 394.433594 223.136719 394.433594 223.707031 C 394.433594 224.082031 394.527344 224.398438 394.722656 224.660156 C 394.917969 224.925781 395.210938 225.140625 395.601562 225.316406 C 395.996094 225.496094 396.492188 225.644531 397.101562 225.777344 L 397.609375 225.886719 C 398.695312 226.121094 399.640625 226.414062 400.445312 226.777344 C 401.25 227.144531 401.878906 227.621094 402.328125 228.210938 C 402.777344 228.8125 403.003906 229.570312 403.003906 230.496094 C 403.003906 231.425781 402.769531 232.238281 402.292969 232.941406 C 401.824219 233.644531 401.15625 234.195312 400.296875 234.589844 C 399.433594 234.992188 398.414062 235.1875 397.242188 235.1875 Z M 397.207031 235.199219 " fill-opacity="1" fill-rule="nonzero"/><path fill="#000000" d="M 406.226562 234.898438 L 404.699219 224.117188 L 407.414062 224.117188 L 408.371094 233.054688 L 408.761719 233.054688 L 410.160156 224.117188 L 414.550781 224.117188 L 415.945312 233.054688 L 416.339844 233.054688 L 417.296875 224.117188 L 420.011719 224.117188 L 418.496094 234.898438 L 413.953125 234.898438 L 412.554688 225.964844 L 412.164062 225.964844 L 410.777344 234.898438 Z M 406.226562 234.898438 " fill-opacity="1" fill-rule="nonzero"/><path fill="#000000" d="M 427.09375 235.199219 C 426.015625 235.199219 425.078125 234.972656 424.253906 234.515625 C 423.429688 234.054688 422.792969 233.410156 422.34375 232.578125 C 421.886719 231.742188 421.660156 230.757812 421.660156 229.636719 L 421.660156 229.371094 C 421.660156 228.238281 421.886719 227.257812 422.335938 226.421875 C 422.785156 225.589844 423.410156 224.941406 424.226562 224.492188 C 425.042969 224.035156 425.976562 223.808594 427.054688 223.808594 C 428.132812 223.808594 429.03125 224.042969 429.820312 224.511719 C 430.605469 224.980469 431.214844 225.636719 431.644531 226.46875 C 432.074219 227.304688 432.300781 228.269531 432.300781 229.371094 L 432.300781 230.308594 L 424.453125 230.308594 C 424.480469 231.050781 424.761719 231.648438 425.277344 232.117188 C 425.800781 232.585938 426.4375 232.808594 427.1875 232.808594 C 427.9375 232.808594 428.515625 232.640625 428.882812 232.3125 C 429.246094 231.976562 429.519531 231.613281 429.707031 231.207031 L 431.945312 232.378906 C 431.738281 232.753906 431.449219 233.167969 431.0625 233.605469 C 430.679688 234.046875 430.164062 234.421875 429.527344 234.738281 C 428.890625 235.050781 428.078125 235.207031 427.09375 235.207031 Z M 424.460938 228.269531 L 429.507812 228.269531 C 429.453125 227.640625 429.199219 227.144531 428.761719 226.769531 C 428.320312 226.394531 427.738281 226.207031 427.035156 226.207031 C 426.335938 226.207031 425.707031 226.394531 425.277344 226.769531 C 424.84375 227.144531 424.574219 227.648438 424.46875 228.269531 Z M 424.460938 228.269531 " fill-opacity="1" fill-rule="nonzero"/><path fill="#000000" d="M 439.832031 235.199219 C 438.761719 235.199219 437.816406 234.972656 436.992188 234.515625 C 436.167969 234.054688 435.53125 233.410156 435.082031 232.578125 C 434.625 231.742188 434.398438 230.757812 434.398438 229.636719 L 434.398438 229.371094 C 434.398438 228.238281 434.625 227.257812 435.074219 226.421875 C 435.523438 225.589844 436.148438 224.941406 436.964844 224.492188 C 437.78125 224.035156 438.714844 223.808594 439.792969 223.808594 C 440.871094 223.808594 441.769531 224.042969 442.558594 224.511719 C 443.34375 224.980469 443.953125 225.636719 444.382812 226.46875 C 444.824219 227.304688 445.039062 228.269531 445.039062 229.371094 L 445.039062 230.308594 L 437.191406 230.308594 C 437.21875 231.050781 437.5 231.648438 438.015625 232.117188 C 438.539062 232.585938 439.175781 232.808594 439.925781 232.808594 C 440.675781 232.808594 441.253906 232.640625 441.621094 232.3125 C 441.984375 231.976562 442.257812 231.613281 442.445312 231.207031 L 444.683594 232.378906 C 444.476562 232.753906 444.1875 233.167969 443.800781 233.605469 C 443.417969 234.046875 442.902344 234.421875 442.265625 234.738281 C 441.628906 235.050781 440.816406 235.207031 439.832031 235.207031 Z M 437.199219 228.269531 L 442.246094 228.269531 C 442.191406 227.640625 441.9375 227.144531 441.5 226.769531 C 441.058594 226.394531 440.476562 226.207031 439.773438 226.207031 C 439.074219 226.207031 438.445312 226.394531 438.015625 226.769531 C 437.582031 227.144531 437.3125 227.648438 437.207031 228.269531 Z M 437.199219 228.269531 " fill-opacity="1" fill-rule="nonzero"/><path fill="#000000" d="M 451.605469 234.898438 C 450.894531 234.898438 450.320312 234.675781 449.871094 234.234375 C 449.429688 233.792969 449.207031 233.203125 449.207031 232.464844 L 449.207031 226.375 L 446.507812 226.375 L 446.507812 224.117188 L 449.207031 224.117188 L 449.207031 220.765625 L 451.949219 220.765625 L 451.949219 224.117188 L 454.910156 224.117188 L 454.910156 226.375 L 451.949219 226.375 L 451.949219 231.984375 C 451.949219 232.417969 452.148438 232.640625 452.558594 232.640625 L 454.648438 232.640625 L 454.648438 234.898438 Z M 451.605469 234.898438 " fill-opacity="1" fill-rule="nonzero"/><path fill="#000000" d="M 462.910156 234.898438 L 462.910156 224.117188 L 465.605469 224.117188 L 465.605469 225.289062 L 466 225.289062 C 466.1875 224.925781 466.496094 224.613281 466.9375 224.34375 C 467.367188 224.070312 467.949219 223.941406 468.652344 223.941406 C 469.417969 223.941406 470.039062 224.089844 470.496094 224.390625 C 470.957031 224.691406 471.3125 225.074219 471.5625 225.550781 L 471.957031 225.550781 C 472.199219 225.09375 472.546875 224.699219 472.996094 224.398438 C 473.445312 224.101562 474.082031 223.941406 474.90625 223.941406 C 475.574219 223.941406 476.183594 224.082031 476.726562 224.363281 C 477.269531 224.644531 477.707031 225.074219 478.027344 225.644531 C 478.355469 226.214844 478.515625 226.9375 478.515625 227.808594 L 478.515625 234.898438 L 475.777344 234.898438 L 475.777344 228.003906 C 475.777344 227.40625 475.628906 226.964844 475.320312 226.667969 C 475.011719 226.367188 474.589844 226.214844 474.035156 226.214844 C 473.417969 226.214844 472.929688 226.414062 472.59375 226.816406 C 472.257812 227.21875 472.078125 227.78125 472.078125 228.519531 L 472.078125 234.890625 L 469.34375 234.890625 L 469.34375 227.996094 C 469.34375 227.398438 469.195312 226.957031 468.886719 226.65625 C 468.578125 226.355469 468.15625 226.207031 467.601562 226.207031 C 466.976562 226.207031 466.496094 226.402344 466.160156 226.804688 C 465.824219 227.210938 465.652344 227.769531 465.652344 228.511719 L 465.652344 234.878906 L 462.910156 234.878906 Z M 462.910156 234.898438 " fill-opacity="1" fill-rule="nonzero"/><path fill="#000000" d="M 486.757812 235.199219 C 485.6875 235.199219 484.722656 234.984375 483.871094 234.542969 C 483.019531 234.113281 482.34375 233.476562 481.847656 232.652344 C 481.351562 231.828125 481.109375 230.835938 481.109375 229.671875 L 481.109375 229.324219 C 481.109375 228.164062 481.351562 227.171875 481.847656 226.347656 C 482.34375 225.523438 483.007812 224.886719 483.871094 224.457031 C 484.722656 224.023438 485.6875 223.800781 486.757812 223.800781 C 487.824219 223.800781 488.796875 224.015625 489.648438 224.457031 C 490.503906 224.886719 491.175781 225.523438 491.671875 226.347656 C 492.160156 227.171875 492.414062 228.164062 492.414062 229.324219 L 492.414062 229.671875 C 492.414062 230.835938 492.167969 231.828125 491.671875 232.652344 C 491.175781 233.476562 490.503906 234.113281 489.648438 234.542969 C 488.796875 234.972656 487.832031 235.199219 486.757812 235.199219 Z M 486.757812 232.761719 C 487.597656 232.761719 488.292969 232.492188 488.84375 231.949219 C 489.398438 231.40625 489.667969 230.628906 489.667969 229.605469 L 489.667969 229.390625 C 489.667969 228.378906 489.398438 227.601562 488.855469 227.058594 C 488.3125 226.515625 487.609375 226.246094 486.757812 226.246094 C 485.902344 226.246094 485.21875 226.515625 484.667969 227.058594 C 484.113281 227.601562 483.84375 228.378906 483.84375 229.390625 L 483.84375 229.605469 C 483.84375 230.617188 484.125 231.394531 484.667969 231.949219 C 485.21875 232.492188 485.914062 232.761719 486.757812 232.761719 Z M 486.757812 232.761719 " fill-opacity="1" fill-rule="nonzero"/><path fill="#000000" d="M 495.054688 234.898438 L 495.054688 224.117188 L 497.753906 224.117188 L 497.753906 225.289062 L 498.144531 225.289062 C 498.332031 224.925781 498.640625 224.613281 499.082031 224.34375 C 499.511719 224.070312 500.09375 223.941406 500.796875 223.941406 C 501.5625 223.941406 502.183594 224.089844 502.640625 224.390625 C 503.101562 224.691406 503.457031 225.074219 503.710938 225.550781 L 504.101562 225.550781 C 504.347656 225.09375 504.691406 224.699219 505.140625 224.398438 C 505.59375 224.101562 506.230469 223.941406 507.054688 223.941406 C 507.71875 223.941406 508.328125 224.082031 508.871094 224.363281 C 509.414062 224.644531 509.851562 225.074219 510.171875 225.644531 C 510.5 226.214844 510.660156 226.9375 510.660156 227.808594 L 510.660156 234.898438 L 507.925781 234.898438 L 507.925781 228.003906 C 507.925781 227.40625 507.773438 226.964844 507.464844 226.667969 C 507.15625 226.367188 506.734375 226.214844 506.183594 226.214844 C 505.5625 226.214844 505.078125 226.414062 504.738281 226.816406 C 504.402344 227.21875 504.222656 227.78125 504.222656 228.519531 L 504.222656 234.890625 L 501.488281 234.890625 L 501.488281 227.996094 C 501.488281 227.398438 501.339844 226.957031 501.03125 226.65625 C 500.722656 226.355469 500.300781 226.207031 499.746094 226.207031 C 499.121094 226.207031 498.640625 226.402344 498.304688 226.804688 C 497.96875 227.210938 497.800781 227.769531 497.800781 228.511719 L 497.800781 234.878906 L 495.054688 234.878906 Z M 495.054688 234.898438 " fill-opacity="1" fill-rule="nonzero"/><path fill="#000000" d="M 518.695312 235.199219 C 517.628906 235.199219 516.679688 234.972656 515.855469 234.515625 C 515.042969 234.054688 514.394531 233.410156 513.945312 232.578125 C 513.488281 231.742188 513.261719 230.757812 513.261719 229.636719 L 513.261719 229.371094 C 513.261719 228.238281 513.488281 227.257812 513.9375 226.421875 C 514.386719 225.589844 515.015625 224.941406 515.828125 224.492188 C 516.644531 224.035156 517.582031 223.808594 518.65625 223.808594 C 519.734375 223.808594 520.632812 224.042969 521.421875 224.511719 C 522.207031 224.980469 522.816406 225.636719 523.246094 226.46875 C 523.6875 227.304688 523.902344 228.269531 523.902344 229.371094 L 523.902344 230.308594 L 516.054688 230.308594 C 516.082031 231.050781 516.363281 231.648438 516.878906 232.117188 C 517.402344 232.585938 518.039062 232.808594 518.789062 232.808594 C 519.539062 232.808594 520.117188 232.640625 520.484375 232.3125 C 520.847656 231.976562 521.121094 231.613281 521.308594 231.207031 L 523.546875 232.378906 C 523.339844 232.753906 523.050781 233.167969 522.667969 233.605469 C 522.28125 234.046875 521.765625 234.421875 521.128906 234.738281 C 520.492188 235.050781 519.679688 235.207031 518.695312 235.207031 Z M 516.0625 228.269531 L 521.113281 228.269531 C 521.054688 227.640625 520.800781 227.144531 520.363281 226.769531 C 519.921875 226.394531 519.339844 226.207031 518.640625 226.207031 C 517.9375 226.207031 517.308594 226.394531 516.878906 226.769531 C 516.449219 227.144531 516.175781 227.648438 516.074219 228.269531 Z M 516.0625 228.269531 " fill-opacity="1" fill-rule="nonzero"/><path fill="#000000" d="M 526.488281 234.898438 L 526.488281 224.117188 L 529.183594 224.117188 L 529.183594 225.53125 L 529.578125 225.53125 C 529.746094 225.15625 530.074219 224.792969 530.554688 224.457031 C 531.03125 224.117188 531.75 223.941406 532.726562 223.941406 C 533.570312 223.941406 534.300781 224.136719 534.9375 224.511719 C 535.5625 224.894531 536.058594 225.429688 536.40625 226.09375 C 536.753906 226.769531 536.929688 227.554688 536.929688 228.453125 L 536.929688 234.890625 L 534.1875 234.890625 L 534.1875 228.671875 C 534.1875 227.855469 533.992188 227.246094 533.585938 226.84375 C 533.195312 226.441406 532.621094 226.234375 531.882812 226.234375 C 531.039062 226.234375 530.394531 226.515625 529.925781 227.070312 C 529.457031 227.621094 529.230469 228.40625 529.230469 229.402344 L 529.230469 234.878906 L 526.496094 234.878906 Z M 526.488281 234.898438 " fill-opacity="1" fill-rule="nonzero"/><path fill="#000000" d="M 543.957031 234.898438 C 543.246094 234.898438 542.671875 234.675781 542.222656 234.234375 C 541.78125 233.792969 541.558594 233.203125 541.558594 232.464844 L 541.558594 226.375 L 538.859375 226.375 L 538.859375 224.117188 L 541.558594 224.117188 L 541.558594 220.765625 L 544.300781 220.765625 L 544.300781 224.117188 L 547.261719 224.117188 L 547.261719 226.375 L 544.300781 226.375 L 544.300781 231.984375 C 544.300781 232.417969 544.5 232.640625 544.910156 232.640625 L 547 232.640625 L 547 234.898438 Z M 543.957031 234.898438 " fill-opacity="1" fill-rule="nonzero"/><path fill="#000000" d="M 554.277344 235.199219 C 552.871094 235.199219 551.722656 234.898438 550.820312 234.289062 C 549.921875 233.679688 549.378906 232.808594 549.191406 231.6875 L 551.710938 231.03125 C 551.8125 231.535156 551.984375 231.9375 552.226562 232.230469 C 552.46875 232.519531 552.761719 232.726562 553.117188 232.847656 C 553.472656 232.96875 553.855469 233.035156 554.277344 233.035156 C 554.914062 233.035156 555.382812 232.921875 555.691406 232.699219 C 555.992188 232.472656 556.152344 232.191406 556.152344 231.863281 C 556.152344 231.535156 556 231.273438 555.71875 231.097656 C 555.4375 230.917969 554.960938 230.769531 554.324219 230.648438 L 553.714844 230.535156 C 552.957031 230.394531 552.273438 230.1875 551.644531 229.933594 C 551.027344 229.683594 550.523438 229.324219 550.148438 228.875 C 549.773438 228.425781 549.585938 227.847656 549.585938 227.132812 C 549.585938 226.066406 549.980469 225.242188 550.765625 224.671875 C 551.550781 224.101562 552.574219 223.808594 553.847656 223.808594 C 555.054688 223.808594 556.046875 224.082031 556.84375 224.613281 C 557.640625 225.148438 558.164062 225.851562 558.410156 226.722656 L 555.859375 227.507812 C 555.75 226.957031 555.503906 226.5625 555.160156 226.339844 C 554.800781 226.105469 554.363281 225.992188 553.835938 225.992188 C 553.3125 225.992188 552.917969 226.085938 552.640625 226.261719 C 552.367188 226.441406 552.226562 226.695312 552.226562 227.011719 C 552.226562 227.359375 552.367188 227.621094 552.65625 227.78125 C 552.949219 227.941406 553.339844 228.070312 553.828125 228.164062 L 554.4375 228.277344 C 555.25 228.417969 555.984375 228.613281 556.648438 228.847656 C 557.304688 229.082031 557.828125 229.429688 558.210938 229.871094 C 558.59375 230.308594 558.78125 230.910156 558.78125 231.660156 C 558.78125 232.792969 558.371094 233.664062 557.554688 234.28125 C 556.742188 234.898438 555.636719 235.207031 554.257812 235.207031 Z M 554.277344 235.199219 " fill-opacity="1" fill-rule="nonzero"/><path fill="#ffffff" d="M 570.164062 148.8125 C 582.5 153.121094 634.714844 171.085938 638.070312 172.257812 C 639.417969 172.734375 640.730469 171.441406 640.484375 170.148438 C 640.269531 169.203125 625.03125 154.742188 613.089844 143.484375 C 610.746094 145.984375 607.507812 147.660156 603.824219 147.941406 C 595.996094 148.542969 589.15625 142.6875 588.558594 134.859375 C 588.503906 134.089844 588.519531 133.332031 588.578125 132.582031 C 576.792969 136.507812 559.148438 143.457031 558.210938 143.429688 C 556.667969 144 555.683594 145.515625 555.796875 147.164062 L 555.617188 183.570312 C 555.75 185.519531 557.367188 187.019531 559.296875 187.027344 C 559.886719 186.953125 633.589844 213.84375 634.179688 213.957031 C 635.378906 214.386719 636.664062 213.5625 636.757812 212.296875 L 637.292969 205.601562 C 637.355469 204.738281 636.839844 203.933594 636.035156 203.632812 L 567.820312 178.597656 C 567.054688 178.316406 566.546875 177.585938 566.558594 176.773438 C 566.839844 174.878906 565.40625 168.660156 569.179688 169.726562 L 636.007812 194.109375 C 637.199219 194.539062 638.472656 193.734375 638.59375 192.480469 L 639.351562 184.734375 C 639.4375 183.851562 638.910156 183.019531 638.078125 182.730469 L 568.785156 158.152344 C 568 157.871094 567.484375 157.128906 567.503906 156.296875 L 567.617188 150.601562 C 567.644531 149.292969 568.9375 148.382812 570.183594 148.8125 Z M 570.164062 148.8125 " fill-opacity="1" fill-rule="nonzero"/></svg>