<svg xmlns="http://www.w3.org/2000/svg" xmlns:xlink="http://www.w3.org/1999/xlink" width="1080" zoomAndPan="magnify" viewBox="0 0 810 809.999993" height="1080" preserveAspectRatio="xMidYMid meet" version="1.0"><defs><clipPath id="051a64400d"><path d="M 19.285156 90 L 791 90 L 791 769.5 L 19.285156 769.5 Z M 19.285156 90 " clip-rule="nonzero"/></clipPath><clipPath id="a7e27a7710"><path d="M 380 40.5 L 539 40.5 L 539 267 L 380 267 Z M 380 40.5 " clip-rule="nonzero"/></clipPath></defs><g clip-path="url(#051a64400d)"><path fill="#eba3d7" d="M 788.9375 259.175781 C 750.179688 181.664062 686.8125 128.28125 600.601562 100.507812 C 600.082031 100.339844 599.550781 100.199219 599.011719 100.082031 C 598.476562 99.964844 597.933594 99.875 597.390625 99.8125 C 596.84375 99.75 596.296875 99.710938 595.746094 99.703125 C 595.199219 99.695312 594.648438 99.710938 594.101562 99.757812 C 593.554688 99.800781 593.011719 99.871094 592.46875 99.96875 C 591.929688 100.066406 591.394531 100.191406 590.867188 100.34375 C 590.339844 100.492188 589.816406 100.667969 589.308594 100.871094 C 588.796875 101.070312 588.296875 101.296875 587.808594 101.546875 C 587.316406 101.800781 586.84375 102.074219 586.382812 102.371094 C 585.917969 102.667969 585.472656 102.988281 585.042969 103.328125 C 584.613281 103.667969 584.199219 104.03125 583.804688 104.414062 C 583.410156 104.792969 583.035156 105.195312 582.679688 105.613281 C 582.320312 106.03125 581.988281 106.46875 581.675781 106.917969 C 581.363281 107.371094 581.070312 107.835938 580.804688 108.316406 C 580.539062 108.796875 580.292969 109.289062 580.074219 109.792969 C 579.855469 110.296875 579.664062 110.808594 579.496094 111.332031 C 579.324219 111.855469 579.183594 112.386719 579.066406 112.921875 C 578.949219 113.460938 578.863281 114 578.796875 114.546875 C 578.734375 115.09375 578.699219 115.640625 578.6875 116.1875 C 578.679688 116.738281 578.699219 117.285156 578.742188 117.832031 C 578.785156 118.382812 578.859375 118.925781 578.957031 119.464844 C 579.054688 120.007812 579.179688 120.542969 579.328125 121.070312 C 579.480469 121.597656 579.65625 122.117188 579.855469 122.628906 C 580.058594 123.140625 580.285156 123.640625 580.535156 124.128906 C 580.785156 124.617188 581.058594 125.09375 581.355469 125.554688 C 581.65625 126.015625 581.972656 126.460938 582.316406 126.894531 C 582.65625 127.324219 583.019531 127.738281 583.398438 128.132812 C 583.78125 128.527344 584.179688 128.902344 584.601562 129.257812 C 585.019531 129.613281 585.453125 129.949219 585.90625 130.261719 C 586.355469 130.574219 586.824219 130.863281 587.300781 131.132812 C 587.78125 131.398438 588.273438 131.640625 588.777344 131.859375 C 589.28125 132.078125 589.796875 132.273438 590.320312 132.441406 C 660.980469 155.191406 714.386719 197.054688 749.460938 256.875 L 517.300781 330.734375 C 516.375 331.03125 515.480469 331.40625 514.617188 331.855469 C 513.753906 332.308594 512.9375 332.832031 512.167969 333.425781 C 511.398438 334.019531 510.683594 334.675781 510.027344 335.394531 C 509.371094 336.113281 508.78125 336.882812 508.257812 337.703125 C 507.738281 338.527344 507.289062 339.386719 506.917969 340.285156 C 506.546875 341.183594 506.253906 342.109375 506.042969 343.058594 C 505.832031 344.011719 505.707031 344.972656 505.664062 345.945312 C 505.621094 346.917969 505.660156 347.886719 505.785156 348.851562 C 505.699219 349.40625 505.644531 349.964844 505.617188 350.527344 L 505.617188 476.300781 C 505.613281 476.972656 505.570312 477.636719 505.484375 478.300781 C 505.402344 478.964844 505.28125 479.621094 505.117188 480.269531 C 504.957031 480.921875 504.757812 481.558594 504.519531 482.183594 C 504.285156 482.808594 504.011719 483.417969 503.699219 484.011719 C 503.390625 484.605469 503.046875 485.175781 502.671875 485.730469 C 502.292969 486.28125 501.882812 486.808594 501.445312 487.3125 C 501.003906 487.816406 500.535156 488.292969 500.039062 488.742188 C 499.542969 489.1875 499.019531 489.605469 498.472656 489.992188 C 497.925781 490.378906 497.359375 490.730469 496.773438 491.050781 C 496.183594 491.367188 495.578125 491.652344 494.957031 491.898438 C 494.335938 492.144531 493.699219 492.355469 493.054688 492.527344 C 492.40625 492.699219 491.753906 492.832031 491.089844 492.925781 C 490.429688 493.019531 489.761719 493.074219 489.09375 493.085938 C 488.425781 493.101562 487.757812 493.078125 487.09375 493.011719 C 486.425781 492.949219 485.765625 492.84375 485.113281 492.703125 C 484.460938 492.558594 483.816406 492.378906 483.183594 492.160156 C 474.605469 489.449219 471.339844 479.65625 471.9375 471.707031 C 472.011719 470.683594 472.054688 469.65625 472.070312 468.628906 C 472.082031 467.601562 472.0625 466.578125 472.011719 465.550781 C 471.960938 464.523438 471.878906 463.5 471.765625 462.480469 C 471.65625 461.457031 471.511719 460.441406 471.335938 459.429688 C 471.160156 458.414062 470.957031 457.410156 470.71875 456.410156 C 470.480469 455.410156 470.214844 454.417969 469.917969 453.433594 C 469.621094 452.453125 469.292969 451.476562 468.9375 450.515625 C 468.582031 449.550781 468.195312 448.597656 467.78125 447.660156 C 467.367188 446.71875 466.921875 445.792969 466.453125 444.878906 C 465.980469 443.964844 465.480469 443.070312 464.957031 442.1875 C 464.429688 441.304688 463.875 440.4375 463.296875 439.589844 C 462.71875 438.742188 462.113281 437.910156 461.484375 437.097656 C 460.855469 436.289062 460.199219 435.496094 459.519531 434.722656 C 458.84375 433.953125 458.140625 433.203125 457.417969 432.472656 C 456.695312 431.746094 455.949219 431.039062 455.179688 430.355469 C 454.414062 429.671875 453.625 429.011719 452.816406 428.378906 C 452.011719 427.742188 451.183594 427.132812 450.339844 426.546875 C 449.496094 425.964844 448.632812 425.40625 447.753906 424.875 C 446.875 424.339844 445.980469 423.835938 445.070312 423.359375 C 444.160156 422.882812 443.238281 422.433594 442.300781 422.011719 C 441.363281 421.589844 440.414062 421.199219 439.453125 420.835938 C 438.492188 420.472656 437.519531 420.140625 436.539062 419.835938 C 435.554688 419.535156 434.566406 419.261719 433.566406 419.019531 C 432.570312 418.773438 431.566406 418.5625 430.554688 418.382812 C 429.542969 418.199219 428.527344 418.050781 427.503906 417.929688 C 426.484375 417.808594 425.460938 417.722656 424.4375 417.664062 C 423.410156 417.609375 422.382812 417.582031 421.355469 417.589844 C 420.328125 417.59375 419.304688 417.632812 418.277344 417.699219 C 417.253906 417.769531 416.230469 417.871094 415.210938 418 C 414.191406 418.132812 413.179688 418.292969 412.167969 418.488281 C 411.160156 418.679688 410.15625 418.902344 409.164062 419.15625 C 408.167969 419.410156 407.179688 419.695312 406.203125 420.011719 C 385.738281 426.398438 371.449219 446.453125 371.449219 468.777344 L 371.449219 535 C 371.445312 535.625 371.410156 536.25 371.335938 536.871094 C 371.261719 537.492188 371.15625 538.109375 371.011719 538.71875 C 370.871094 539.328125 370.695312 539.929688 370.488281 540.519531 C 370.28125 541.113281 370.039062 541.6875 369.765625 542.253906 C 369.492188 542.816406 369.1875 543.363281 368.855469 543.894531 C 368.519531 544.421875 368.160156 544.933594 367.769531 545.421875 C 367.378906 545.914062 366.960938 546.378906 366.519531 546.820312 C 366.074219 547.265625 365.609375 547.683594 365.121094 548.074219 C 364.628906 548.464844 364.121094 548.828125 363.589844 549.160156 C 363.0625 549.496094 362.515625 549.800781 361.949219 550.074219 C 361.386719 550.347656 360.808594 550.589844 360.21875 550.796875 C 359.628906 551.007812 359.027344 551.183594 358.417969 551.324219 C 357.808594 551.46875 357.191406 551.574219 356.570312 551.648438 C 355.949219 551.722656 355.324219 551.761719 354.699219 551.765625 C 354.070312 551.769531 353.445312 551.738281 352.824219 551.671875 C 352.199219 551.605469 351.582031 551.507812 350.972656 551.371094 C 343.527344 549.808594 337.910156 542.171875 337.910156 533.601562 L 337.910156 409.21875 C 337.914062 408.417969 337.859375 407.621094 337.75 406.828125 C 337.636719 406.035156 337.46875 405.253906 337.246094 404.484375 C 337.023438 403.714844 336.746094 402.964844 336.414062 402.234375 C 336.082031 401.503906 335.699219 400.804688 335.269531 400.128906 C 334.835938 399.453125 334.355469 398.816406 333.832031 398.210938 C 333.308594 397.605469 332.742188 397.039062 332.136719 396.515625 C 331.53125 395.992188 330.890625 395.511719 330.214844 395.082031 C 329.539062 394.648438 328.835938 394.269531 328.109375 393.9375 C 327.378906 393.605469 326.628906 393.328125 325.859375 393.105469 C 325.089844 392.882812 324.308594 392.71875 323.515625 392.609375 C 322.71875 392.496094 321.921875 392.445312 321.121094 392.449219 C 320.320312 392.453125 319.523438 392.515625 318.730469 392.636719 C 317.941406 392.753906 317.160156 392.929688 316.394531 393.160156 C 315.625 393.394531 314.878906 393.679688 314.152344 394.015625 C 313.429688 394.355469 312.730469 394.746094 312.058594 395.183594 C 311.390625 395.625 310.753906 396.109375 310.15625 396.640625 L 74.011719 471.78125 L 351.125 117.695312 C 351.476562 117.261719 351.800781 116.816406 352.105469 116.351562 C 352.410156 115.886719 352.691406 115.410156 352.949219 114.917969 C 353.207031 114.425781 353.441406 113.921875 353.648438 113.40625 C 353.855469 112.894531 354.039062 112.367188 354.191406 111.835938 C 354.347656 111.304688 354.476562 110.761719 354.578125 110.21875 C 354.679688 109.671875 354.753906 109.121094 354.804688 108.570312 C 354.851562 108.015625 354.871094 107.460938 354.863281 106.90625 C 354.855469 106.351562 354.820312 105.796875 354.757812 105.246094 C 354.695312 104.695312 354.605469 104.148438 354.488281 103.605469 C 354.371094 103.0625 354.226562 102.527344 354.054688 101.996094 C 353.886719 101.46875 353.691406 100.949219 353.46875 100.441406 C 353.246094 99.933594 353 99.433594 352.730469 98.949219 C 352.457031 98.464844 352.164062 97.996094 351.847656 97.539062 C 351.527344 97.085938 351.1875 96.648438 350.828125 96.226562 C 350.464844 95.804688 350.085938 95.402344 349.683594 95.015625 C 349.28125 94.632812 348.863281 94.269531 348.425781 93.929688 C 347.988281 93.585938 347.535156 93.265625 347.066406 92.96875 C 346.597656 92.671875 346.113281 92.398438 345.617188 92.152344 C 345.121094 91.902344 344.613281 91.675781 344.09375 91.480469 C 343.578125 91.28125 343.050781 91.109375 342.515625 90.960938 C 341.980469 90.816406 341.4375 90.695312 340.890625 90.601562 C 340.34375 90.511719 339.792969 90.445312 339.238281 90.40625 C 338.683594 90.371094 338.128906 90.359375 337.574219 90.375 C 337.019531 90.394531 336.464844 90.4375 335.914062 90.511719 C 335.367188 90.582031 334.820312 90.679688 334.277344 90.808594 C 333.738281 90.933594 333.207031 91.085938 332.679688 91.265625 C 332.152344 91.445312 331.640625 91.648438 331.132812 91.878906 C 330.628906 92.109375 330.136719 92.367188 329.65625 92.644531 C 329.175781 92.925781 328.710938 93.226562 328.261719 93.550781 C 327.8125 93.878906 327.378906 94.226562 326.964844 94.59375 C 326.546875 94.960938 326.152344 95.351562 325.777344 95.757812 C 325.398438 96.164062 325.042969 96.589844 324.707031 97.035156 L 22.847656 482.746094 C 19.460938 487.070312 19.285156 500.070312 19.285156 501.457031 L 19.285156 753.007812 C 19.285156 754.328125 19.4375 755.628906 19.746094 756.910156 C 20.054688 758.191406 20.503906 759.421875 21.101562 760.597656 C 21.699219 761.773438 22.425781 762.863281 23.277344 763.867188 C 24.132812 764.875 25.089844 765.765625 26.15625 766.542969 C 29.066406 768.671875 39.472656 769.519531 41.140625 768.988281 L 779.023438 534.207031 C 779.867188 533.9375 780.683594 533.605469 781.472656 533.210938 C 782.261719 532.8125 783.015625 532.355469 783.734375 531.839844 C 784.449219 531.324219 785.125 530.753906 785.75 530.128906 C 786.378906 529.507812 786.953125 528.839844 787.476562 528.125 C 787.996094 527.410156 788.460938 526.660156 788.863281 525.875 C 789.265625 525.085938 789.605469 524.273438 789.878906 523.433594 C 790.152344 522.59375 790.359375 521.738281 790.5 520.863281 C 790.636719 519.988281 790.707031 519.113281 790.707031 518.226562 L 790.707031 266.675781 C 790.273438 264.140625 789.683594 261.640625 788.9375 259.175781 Z M 52.824219 730.074219 L 52.824219 647.878906 L 263.570312 580.828125 C 264.097656 580.667969 264.613281 580.480469 265.125 580.265625 C 265.632812 580.050781 266.132812 579.8125 266.617188 579.550781 C 267.101562 579.285156 267.574219 579 268.03125 578.691406 C 268.488281 578.378906 268.929688 578.046875 269.355469 577.695312 C 269.777344 577.339844 270.183594 576.96875 270.570312 576.574219 C 270.960938 576.179688 271.328125 575.769531 271.675781 575.339844 C 272.019531 574.910156 272.347656 574.464844 272.648438 574.003906 C 272.953125 573.539062 273.230469 573.066406 273.488281 572.574219 C 273.742188 572.085938 273.972656 571.585938 274.179688 571.074219 C 274.386719 570.558594 274.566406 570.039062 274.722656 569.507812 C 274.878906 568.980469 275.007812 568.441406 275.109375 567.898438 C 275.210938 567.355469 275.285156 566.808594 275.332031 566.257812 C 275.378906 565.710938 275.402344 565.160156 275.394531 564.605469 C 275.386719 564.054688 275.355469 563.503906 275.292969 562.953125 C 275.230469 562.40625 275.144531 561.859375 275.03125 561.320312 C 274.914062 560.78125 274.773438 560.246094 274.605469 559.71875 C 274.4375 559.195312 274.246094 558.675781 274.027344 558.167969 C 273.808594 557.664062 273.566406 557.167969 273.296875 556.683594 C 273.03125 556.199219 272.738281 555.730469 272.425781 555.277344 C 272.113281 554.824219 271.777344 554.386719 271.417969 553.964844 C 271.0625 553.542969 270.683594 553.140625 270.289062 552.753906 C 269.890625 552.371094 269.476562 552.007812 269.042969 551.664062 C 268.609375 551.320312 268.164062 551 267.699219 550.703125 C 267.234375 550.402344 266.753906 550.128906 266.261719 549.875 C 265.773438 549.625 265.269531 549.398438 264.753906 549.195312 C 264.242188 548.996094 263.71875 548.816406 263.1875 548.667969 C 262.65625 548.519531 262.117188 548.394531 261.574219 548.296875 C 261.03125 548.199219 260.480469 548.128906 259.929688 548.085938 C 259.378906 548.042969 258.828125 548.027344 258.277344 548.039062 C 257.726562 548.050781 257.175781 548.089844 256.625 548.15625 C 256.078125 548.222656 255.535156 548.316406 254.996094 548.433594 C 254.457031 548.554688 253.921875 548.699219 253.398438 548.871094 L 52.824219 612.683594 L 52.824219 513.71875 L 304.375 433.679688 L 304.375 533.601562 C 304.375 558.089844 321.078125 579.367188 344.085938 584.195312 C 347.570312 584.929688 351.089844 585.300781 354.648438 585.300781 C 356.296875 585.300781 357.941406 585.21875 359.578125 585.054688 C 361.21875 584.890625 362.847656 584.648438 364.464844 584.328125 C 366.078125 584.003906 367.675781 583.605469 369.25 583.125 C 370.828125 582.644531 372.378906 582.089844 373.898438 581.460938 C 375.421875 580.828125 376.910156 580.125 378.363281 579.347656 C 379.816406 578.574219 381.226562 577.726562 382.597656 576.8125 C 383.964844 575.894531 385.289062 574.917969 386.5625 573.871094 C 387.835938 572.828125 389.054688 571.722656 390.222656 570.558594 C 391.386719 569.394531 392.492188 568.171875 393.539062 566.902344 C 394.585938 565.628906 395.566406 564.308594 396.484375 562.9375 C 397.398438 561.570312 398.246094 560.15625 399.023438 558.707031 C 399.800781 557.253906 400.507812 555.765625 401.140625 554.246094 C 401.773438 552.722656 402.328125 551.175781 402.808594 549.597656 C 403.289062 548.023438 403.691406 546.425781 404.015625 544.8125 C 404.339844 543.195312 404.582031 541.566406 404.746094 539.929688 C 404.910156 538.289062 404.992188 536.644531 404.996094 535 L 404.996094 468.777344 C 404.996094 460.972656 409.601562 454.085938 416.199219 452.027344 C 416.855469 451.804688 417.523438 451.621094 418.203125 451.480469 C 418.882812 451.339844 419.566406 451.242188 420.257812 451.183594 C 420.949219 451.128906 421.640625 451.113281 422.335938 451.140625 C 423.027344 451.171875 423.71875 451.242188 424.402344 451.355469 C 425.085938 451.46875 425.761719 451.625 426.425781 451.820312 C 427.089844 452.015625 427.742188 452.253906 428.378906 452.53125 C 429.015625 452.808594 429.632812 453.121094 430.230469 453.476562 C 430.824219 453.828125 431.398438 454.214844 431.949219 454.640625 C 432.5 455.0625 433.019531 455.519531 433.511719 456.007812 C 434.007812 456.492188 434.46875 457.011719 434.898438 457.554688 C 435.328125 458.097656 435.722656 458.667969 436.082031 459.261719 C 436.441406 459.855469 436.761719 460.46875 437.046875 461.101562 C 437.332031 461.734375 437.574219 462.382812 437.78125 463.042969 C 437.984375 463.707031 438.148438 464.378906 438.269531 465.0625 C 438.390625 465.746094 438.46875 466.433594 438.503906 467.128906 C 438.542969 467.820312 438.535156 468.511719 438.488281 469.203125 C 436.597656 494.492188 450.808594 517.082031 473.046875 524.128906 C 473.988281 524.4375 474.9375 524.714844 475.894531 524.96875 C 476.855469 525.21875 477.820312 525.445312 478.789062 525.640625 C 479.761719 525.835938 480.738281 526 481.71875 526.136719 C 482.699219 526.277344 483.683594 526.382812 484.667969 526.464844 C 485.65625 526.542969 486.644531 526.59375 487.636719 526.617188 C 488.625 526.636719 489.617188 526.628906 490.605469 526.59375 C 491.59375 526.554688 492.582031 526.488281 493.570312 526.394531 C 494.554688 526.300781 495.539062 526.175781 496.515625 526.023438 C 497.496094 525.867188 498.46875 525.6875 499.4375 525.476562 C 500.402344 525.265625 501.363281 525.027344 502.316406 524.761719 C 503.273438 524.492188 504.21875 524.199219 505.152344 523.875 C 506.089844 523.554688 507.015625 523.203125 507.933594 522.828125 C 508.847656 522.449219 509.75 522.046875 510.644531 521.617188 C 511.535156 521.183594 512.414062 520.730469 513.277344 520.246094 C 514.144531 519.765625 514.996094 519.257812 515.828125 518.722656 C 516.664062 518.191406 517.484375 517.636719 518.285156 517.054688 C 519.089844 516.472656 519.875 515.871094 520.640625 515.242188 C 521.40625 514.617188 522.15625 513.96875 522.882812 513.296875 C 523.613281 512.625 524.320312 511.933594 525.007812 511.222656 C 525.695312 510.507812 526.363281 509.777344 527.007812 509.027344 C 527.652344 508.273438 528.273438 507.503906 528.875 506.714844 C 529.472656 505.925781 530.046875 505.121094 530.601562 504.296875 C 531.152344 503.476562 531.679688 502.636719 532.183594 501.785156 C 532.683594 500.929688 533.160156 500.0625 533.613281 499.183594 C 534.066406 498.300781 534.488281 497.40625 534.886719 496.5 C 535.289062 495.59375 535.660156 494.675781 536.003906 493.746094 C 536.347656 492.820312 536.664062 491.878906 536.953125 490.933594 C 537.246094 489.984375 537.503906 489.03125 537.738281 488.070312 C 537.972656 487.105469 538.175781 486.136719 538.351562 485.164062 C 538.527344 484.1875 538.675781 483.210938 538.792969 482.226562 C 538.914062 481.242188 539.003906 480.257812 539.0625 479.269531 C 539.121094 478.28125 539.152344 477.289062 539.15625 476.300781 L 539.15625 358.976562 L 757.171875 289.613281 L 757.171875 388.578125 L 590.382812 441.644531 C 589.4375 441.945312 588.527344 442.328125 587.648438 442.792969 C 586.769531 443.253906 585.9375 443.789062 585.15625 444.402344 C 584.375 445.011719 583.648438 445.6875 582.988281 446.425781 C 582.324219 447.164062 581.730469 447.953125 581.207031 448.796875 C 580.6875 449.640625 580.242188 450.527344 579.875 451.449219 C 579.511719 452.371094 579.230469 453.320312 579.03125 454.292969 C 578.835938 455.265625 578.722656 456.246094 578.699219 457.238281 C 578.679688 458.230469 578.742188 459.21875 578.894531 460.199219 C 579.046875 461.179688 579.285156 462.140625 579.605469 463.078125 C 579.929688 464.015625 580.332031 464.921875 580.816406 465.789062 C 581.296875 466.65625 581.851562 467.472656 582.480469 468.242188 C 583.109375 469.011719 583.800781 469.71875 584.554688 470.363281 C 585.308594 471.007812 586.113281 471.582031 586.96875 472.085938 C 587.824219 472.589844 588.714844 473.015625 589.648438 473.359375 C 590.578125 473.703125 591.53125 473.960938 592.507812 474.136719 C 593.488281 474.3125 594.472656 474.402344 595.464844 474.402344 C 597.148438 474.402344 757.171875 423.777344 757.171875 423.777344 L 757.171875 505.96875 Z M 52.824219 730.074219 " fill-opacity="1" fill-rule="nonzero"/></g><g clip-path="url(#a7e27a7710)"><path fill="#eba3d7" d="M 459.5 266.675781 C 503.152344 266.675781 538.664062 223.53125 538.664062 170.496094 C 538.664062 121.628906 478.8125 53.46875 471.988281 45.859375 C 471.585938 45.4375 471.160156 45.039062 470.71875 44.664062 C 470.273438 44.285156 469.816406 43.929688 469.335938 43.601562 C 468.855469 43.269531 468.363281 42.964844 467.855469 42.683594 C 467.34375 42.402344 466.820312 42.148438 466.285156 41.921875 C 465.75 41.691406 465.207031 41.492188 464.652344 41.316406 C 464.097656 41.144531 463.535156 41 462.964844 40.882812 C 462.394531 40.765625 461.820312 40.679688 461.238281 40.621094 C 460.660156 40.5625 460.082031 40.535156 459.5 40.535156 C 458.917969 40.535156 458.335938 40.5625 457.757812 40.621094 C 457.179688 40.679688 456.605469 40.765625 456.035156 40.882812 C 455.464844 41 454.902344 41.144531 454.347656 41.316406 C 453.792969 41.492188 453.246094 41.691406 452.710938 41.921875 C 452.175781 42.148438 451.65625 42.402344 451.144531 42.683594 C 450.636719 42.964844 450.140625 43.269531 449.664062 43.601562 C 449.183594 43.929688 448.722656 44.285156 448.28125 44.664062 C 447.835938 45.039062 447.414062 45.4375 447.011719 45.859375 C 440.1875 53.46875 380.332031 121.628906 380.332031 170.496094 C 380.332031 223.53125 415.84375 266.675781 459.5 266.675781 Z M 459.5 83.113281 C 480.664062 109.785156 505.117188 147.902344 505.117188 170.503906 C 505.117188 205.042969 484.652344 233.144531 459.492188 233.144531 C 434.332031 233.144531 413.863281 205.042969 413.863281 170.503906 C 413.871094 147.960938 438.335938 109.8125 459.507812 83.113281 Z M 459.5 83.113281 " fill-opacity="1" fill-rule="nonzero"/></g></svg>